<svg width="17" height="17" viewBox="0 0 17 17" fill="none" xmlns="http://www.w3.org/2000/svg">
<path d="M11.7223 8.5L16.5552 3.66707C17.1483 3.07401 17.1483 2.11244 16.5552 1.51889L15.4811 0.444801C14.888 -0.148267 13.9265 -0.148267 13.3329 0.444801L8.5 5.27773L3.66707 0.444801C3.07401 -0.148267 2.11244 -0.148267 1.51889 0.444801L0.444801 1.51889C-0.148267 2.11196 -0.148267 3.07352 0.444801 3.66707L5.27773 8.5L0.444801 13.3329C-0.148267 13.926 -0.148267 14.8876 0.444801 15.4811L1.51889 16.5552C2.11196 17.1483 3.07401 17.1483 3.66707 16.5552L8.5 11.7223L13.3329 16.5552C13.926 17.1483 14.888 17.1483 15.4811 16.5552L16.5552 15.4811C17.1483 14.888 17.1483 13.9265 16.5552 13.3329L11.7223 8.5Z" fill="white"/>
</svg>
